<?xml version="1.0" encoding="utf-8"?>
<!-- Generator: Adobe Illustrator 19.2.1, SVG Export Plug-In . SVG Version: 6.00 Build 0)  -->
<svg version="1.1" id="Layer_1" xmlns="http://www.w3.org/2000/svg" xmlns:xlink="http://www.w3.org/1999/xlink" x="0px" y="0px"
	 viewBox="0 0 2000 1200" style="enable-background:new 0 0 2000 1200;" xml:space="preserve">
<style type="text/css">
	.st0{fill:#0E76BB;}
	.st1{font-family:'DAGGERSQUARE';}
	.st2{font-size:233.5116px;}
	.st3{fill:#8CC53F;}
	.st4{fill:#ED0824;}
	.st5{fill:#0F76BC;}
	.st6{fill:#F5F5F6;}
	.st7{fill:#F4F6F5;}
	.st8{fill:#F5F6F6;}
	.st9{fill:#F3F4F4;}
	.st10{fill:#F4F5F5;}
</style>
<text transform="matrix(1 0 0 1 657.3088 663.277)" class="st0 st1 st2">No</text>
<text transform="matrix(1 0 0 1 946.9088 663.277)" class="st3 st1 st2">Longa</text>
<g>
	<g>
		<path class="st3" d="M405.7,605.2c0-18.4-0.3-36.3,0.1-54.2c0.2-7.3,6.4-11.6,15.2-11.6c32.9,0,65.8,0,98.6,0
			c21.5,0,23.4,1.9,23.5,23.7c0,15.4-0.2,30.8,0.1,46.2c0.1,5.1-1.6,8.1-6.1,10.2c-3.5,1.6-7.4,3.2-10.1,5.8
			c-10.4,10.3-23,5.3-34.8,5.5c-1.8,0-2.7-1.5-3.9-2.6c-3.5-3.3-7-6.7-10.6-9.9c-5-4.6-9.2-8.7-9.5-16.9
			c-0.5-12.7-10.8-21.4-23.7-22.9c-10.7-1.3-22.8,5.7-26.5,16.8C415.9,601.7,411.6,603.5,405.7,605.2z"/>
		<path class="st4" d="M626.7,564.3c-3.1-1.3-5.1,0.5-7.1,3.1c-9.8,12.2-19.7,24.3-29.6,36.4c-1.9,2.3-2.8,4.2-1.5,7.3
			c3,7.2,0.7,13.7-4.8,18.7c-5.8,5.2-12.8,6.6-19.8,2.8c-3.4-1.8-5.6-1.4-8.7,0.4c-11.1,6.5-22.3,12.7-33.6,19
			c-2.9,1.6-4.8,3.2-5.2,7.1c-1,9.7-10.2,16.5-19.5,15.3c-10-1.3-17.3-9.8-16-19.7c0.5-3.9-0.8-5.9-3.3-8.1
			c-5.8-5.3-11.4-10.7-17-16.1c-5.3-5.1-9.8-11.7-19-8.2c-1.4,0.6-4,0-5.2-1c-5.8-4.8-10.9-1.9-16.3,0.8
			c-10.7,5.2-21.6,10.2-32.4,15.2c-3,1.4-5,2.6-5.4,6.7c-0.7,7.9-7.2,13.7-15.1,14.8c-8,1.1-15.5-2.8-18.9-9.7
			c-3.4-6.8-2-14.8,3.4-20.3s14.3-7.4,20.9-3.2c4.3,2.7,7.3,1.8,11.2-0.1c12-5.8,24.1-11.4,36.2-16.9c2.7-1.2,4.1-2.7,4.7-5.9
			c2-10.9,10.9-17.3,20.7-15.4c10.5,2,16.2,10,14.6,21.2c-0.4,2.9,0.2,4.7,2.3,6.6c8.3,7.7,16.4,15.4,24.5,23.3
			c2.1,2,3.8,2.6,6.7,1.5c4-1.5,8.6-1.9,12,0.6c5.2,3.8,9.1,1.6,13.5-1.1c10.1-5.9,20.3-11.6,30.6-17.3c2.6-1.4,3.9-3,4.1-6.3
			c0.7-10.5,8.3-17.4,18.8-16.6c4.1,0.3,6.2-1,8.5-3.9c9.5-11.9,19.1-23.6,28.7-35.3c2.1-2.5,2.8-4.6,1.6-7.9
			c-2.8-7.8,0.1-15.5,6.6-20c6.8-4.7,15.5-4.4,21.8,0.7c6,4.8,8.2,12.8,5.5,19.8C642.4,560.1,635.6,564.6,626.7,564.3z"/>
		<path class="st0" d="M474,701c-17.2,0-34.5,0-51.7,0c-11.9,0-16.7-4.9-16.7-16.7c0-13.8,0.1-27.6-0.1-41.4
			c-0.1-3.8,1.2-5.9,4.7-7.2c3-1.1,5.9-2.5,8.7-4.1c5.6-3.2,11.1-6.3,17.4-3.2c0.4,0.2,0.9,0.4,1.3,0.4
			c17.3-0.1,22.7,15.5,33.5,23.3c1.8,1.3,1.1,3.4,1.2,5.1c0.8,13.6,10.2,23.6,23.7,25.4c12,1.6,24-6.4,28.1-18.6
			c1.2-3.5,14.5-14,17.6-13.8c2.2,0.1,1.6,1.8,1.6,3c0,11.7,0.2,23.5-0.3,35.2c-0.3,8-6.2,12.5-15.2,12.6
			C509.9,701.1,492,701,474,701z"/>
		<path class="st3" d="M551.9,598.6c0-15.3,0.1-28.8,0-42.3c-0.1-13.1-5.5-20.8-16.3-24.4c-2.7-0.9-5.4-0.8-8.2-0.8
			c-21.6,0-43.2-0.2-64.9,0.1c-5.6,0.1-7.3-1.8-6.7-7c0.3-3-0.1-6,0.2-9c0.7-7.6,5.9-13,13.5-13.1c37-0.2,74.1-0.1,111.1,0
			c7.6,0,13.1,5.5,13.2,13.1c0.3,15.9,0.1,31.7,0.1,47.6c0,2.2-0.6,3.9-2.1,5.6c-5.3,6.3-10.5,12.8-15.7,19.2
			c-1.2,1.4-2.2,2.8-4.4,2.8C564.8,590.4,558.8,593.1,551.9,598.6z"/>
		<path class="st5" d="M593.9,631.2c0,7.3,0.1,13,0,18.7c-0.2,8-5.4,13.4-13.3,13.8c-8.2,0.3-16.5,0.1-24.8,0
			c-1.1,0-2.3-0.2-3.2-0.8c-1-0.6-1.2-17.2-0.1-18.3c3.4-3.4,6.9-4.9,12.2-3.2C575.8,645.2,585.1,640.7,593.9,631.2z"/>
		<path class="st6" d="M635.3,546.3c-0.5,4-2.6,6.6-6.5,6.8c-4.2,0.2-7-2.4-7.1-6.6c-0.1-4,2.5-6.5,6.4-6.7
			C632.2,539.6,634.6,542.2,635.3,546.3z"/>
		<path class="st7" d="M449.2,604.7c-0.4,4.1-2.6,6.6-6.9,6.5c-4.1-0.1-6.3-2.6-6.4-6.5c-0.1-4.4,2.8-6.8,6.8-6.7
			C446.5,598.1,449,600.5,449.2,604.7z"/>
		<path class="st8" d="M371.4,641.2c-0.7,4.2-3,6.6-7.4,6.4c-4-0.2-6.4-2.8-6.3-6.6c0.1-4.2,2.8-6.6,7.2-6.4
			C369,634.8,370.9,637.4,371.4,641.2z"/>
		<path class="st9" d="M505.6,656.2c-0.6,4.9-3.3,7.3-7.4,7c-3.8-0.2-6.5-2.9-6.2-6.8c0.2-4.1,2.9-6.7,7.3-6.4
			C503.3,650.3,505.1,652.9,505.6,656.2z"/>
		<path class="st10" d="M571.8,623.5c-3.7-0.6-6.6-2.1-6.9-6.2c-0.3-4.4,2.1-7,6.4-7.3c4-0.3,6.6,2.2,7,6
			C578.7,620.3,575.8,622.6,571.8,623.5z"/>
	</g>
</g>
</svg>
